<svg id="ill-fanout" xmlns="http://www.w3.org/2000/svg" width="720" height="320" viewBox="0 0 720 320">
        <defs>
          <style>
            .m { font-family: ui-monospace, "SF Mono", Menlo, Consolas, monospace; font-size: 11px; }
            .s { font-family: system-ui, -apple-system, "Segoe UI", Roboto, sans-serif; font-size: 12px; }
          </style>
          <marker id="fa" markerWidth="9" markerHeight="9" refX="7" refY="3.5" orient="auto" markerUnits="userSpaceOnUse">
            <path d="M0,0 L0,7 L7,3.5 z" fill="#87867F"/>
          </marker>
        </defs>

        <rect width="720" height="320" fill="#FAF9F5"/>

        <!-- source -->
        <rect x="60" y="128" width="110" height="64" rx="10" fill="#E3DACC" stroke="#141413" stroke-width="2"/>
        <text x="115" y="158" text-anchor="middle" class="m" fill="#141413">enqueue</text>
        <text x="115" y="172" text-anchor="middle" class="m" fill="#87867F">batch()</text>

        <!-- fan-out arrows: from (170,160) to four shard boxes at x=300 -->
        <line x1="170" y1="160" x2="296" y2="64"  stroke="#87867F" stroke-width="1.5" marker-end="url(#fa)"/>
        <line x1="170" y1="160" x2="296" y2="128" stroke="#87867F" stroke-width="1.5" marker-end="url(#fa)"/>
        <line x1="170" y1="160" x2="296" y2="192" stroke="#87867F" stroke-width="1.5" marker-end="url(#fa)"/>
        <line x1="170" y1="160" x2="296" y2="256" stroke="#87867F" stroke-width="1.5" marker-end="url(#fa)"/>

        <!-- four shard boxes -->
        <g>
          <rect x="300" y="44"  width="120" height="40" rx="10" fill="#F0EEE6" stroke="#3D3D3A" stroke-width="1.5"/>
          <text x="360" y="69"  text-anchor="middle" class="m" fill="#3D3D3A">shard 0</text>

          <rect x="300" y="108" width="120" height="40" rx="10" fill="#F0EEE6" stroke="#3D3D3A" stroke-width="1.5"/>
          <text x="360" y="133" text-anchor="middle" class="m" fill="#3D3D3A">shard 1</text>

          <rect x="300" y="172" width="120" height="40" rx="10" fill="#F0EEE6" stroke="#3D3D3A" stroke-width="1.5"/>
          <text x="360" y="197" text-anchor="middle" class="m" fill="#3D3D3A">shard 2</text>

          <rect x="300" y="236" width="120" height="40" rx="10" fill="#F0EEE6" stroke="#3D3D3A" stroke-width="1.5"/>
          <text x="360" y="261" text-anchor="middle" class="m" fill="#3D3D3A">shard 3</text>
        </g>

        <!-- converge arrows to merge -->
        <line x1="420" y1="64"  x2="546" y2="160" stroke="#87867F" stroke-width="1.5" marker-end="url(#fa)"/>
        <line x1="420" y1="128" x2="546" y2="160" stroke="#87867F" stroke-width="1.5" marker-end="url(#fa)"/>
        <line x1="420" y1="192" x2="546" y2="160" stroke="#87867F" stroke-width="1.5" marker-end="url(#fa)"/>
        <line x1="420" y1="256" x2="546" y2="160" stroke="#87867F" stroke-width="1.5" marker-end="url(#fa)"/>

        <!-- merge box -->
        <rect x="550" y="128" width="110" height="64" rx="10" fill="#788C5D" stroke="#141413" stroke-width="2"/>
        <text x="605" y="158" text-anchor="middle" class="m" fill="#FAF9F5">merge</text>
        <text x="605" y="172" text-anchor="middle" class="m" fill="#E3DACC">await all</text>

        <!-- annotations -->
        <text x="232" y="42"  class="s" fill="#87867F">fan-out</text>
        <text x="486" y="42"  text-anchor="end" class="s" fill="#87867F">fan-in</text>
        <text x="60"  y="300" class="s" fill="#87867F">Parent job spawns N children, then blocks on a completion barrier.</text>
      </svg>
